<svg xmlns="http://www.w3.org/2000/svg" viewBox="0 0 1600 700" role="img" aria-labelledby="title desc">
  <title id="title">ภาพจำลองเรือพระสำหรับข้อมูลสาธิต</title>
  <desc id="desc">ภาพเงาเรือพระสีทองบนพื้นเขียวเข้ม มีส่วนยอด บุษบก และหัวเรือ</desc>
  <rect width="1600" height="700" fill="#173b33"/>
  <circle cx="1280" cy="125" r="72" fill="#d9b96d" opacity=".18"/>
  <path d="M105 520c260 38 1065 42 1390-16-96 98-250 145-390 155H360c-112-13-199-60-255-139Z" fill="#a97b2c"/>
  <path d="M230 510h1120l-64-73H300Z" fill="#dfc17d"/>
  <path d="M605 430h390V245H605Z" fill="#9e742c"/>
  <path d="M654 405h292V270H654Z" fill="#f0dcaa"/>
  <path d="M570 245 800 105l230 140Z" fill="#d8b35e"/>
  <path d="M685 205 800 52l115 153Z" fill="#b8872f"/>
  <path d="M800 65v365M375 440l95-110 95 110M1035 440l95-110 95 110" fill="none" stroke="#f3e4bb" stroke-width="13"/>
  <g fill="none" stroke="#76541f" stroke-width="8" opacity=".88">
    <path d="M160 535c85-100 170 100 255 0s170 100 255 0 170 100 255 0 170 100 255 0 170 100 255 0"/>
    <path d="M640 350c52-80 105 80 158 0s105 80 158 0"/>
  </g>
  <text x="70" y="80" fill="#f4ead0" font-family="sans-serif" font-size="26">ภาพจำลองเพื่อการพัฒนา · ข้อมูลยังไม่ผ่านการตรวจสอบ</text>
</svg>
