<svg xmlns="http://www.w3.org/2000/svg" viewBox="0 0 1200 1200" width="1200" height="1200" role="img" aria-label="ภาพตัวอย่างลวดลายสำหรับการพัฒนา ยังไม่ใช่ลายที่บันทึกจากพื้นที่">
  <title>ภาพตัวอย่างลวดลายสำหรับการพัฒนา ยังไม่ใช่ลายที่บันทึกจากพื้นที่</title>
  <rect width="1200" height="1200" fill="#f1e9d9"/>
<rect width="1200" height="1200" fill="#f1e9d9"/>
<path d="M200.0 64.0 q136.0 136.0 0 272.0 q-136.0 -136.0 0 -272.0 Z" fill="#2b4c6b" fill-opacity=".8"/>
<circle cx="600.0" cy="200.0" r="136.0" fill="none" stroke="#2b4c6b" stroke-opacity=".75" stroke-width="29.9"/>
<path d="M864.0 336.0 q136.0 -272.0 272.0 0" fill="none" stroke="#2b4c6b" stroke-opacity=".8" stroke-width="32.6"/>
<circle cx="200.0" cy="600.0" r="136.0" fill="none" stroke="#2b4c6b" stroke-opacity=".75" stroke-width="29.9"/>
<path d="M464.0 736.0 q136.0 -272.0 272.0 0" fill="none" stroke="#2b4c6b" stroke-opacity=".8" stroke-width="32.6"/>
<path d="M1000.0 464.0 q136.0 136.0 0 272.0 q-136.0 -136.0 0 -272.0 Z" fill="#2b4c6b" fill-opacity=".8"/>
<path d="M64.0 1136.0 q136.0 -272.0 272.0 0" fill="none" stroke="#2b4c6b" stroke-opacity=".8" stroke-width="32.6"/>
<path d="M600.0 864.0 q136.0 136.0 0 272.0 q-136.0 -136.0 0 -272.0 Z" fill="#2b4c6b" fill-opacity=".8"/>
<circle cx="1000.0" cy="1000.0" r="136.0" fill="none" stroke="#2b4c6b" stroke-opacity=".75" stroke-width="29.9"/>
<rect x="0" y="0" width="1200" height="1200" fill="#b99555" fill-opacity="0.076"/>
  <text x="1158" y="1158" text-anchor="end" font-family="sans-serif" font-size="38" fill="#ffffff" fill-opacity=".42">PLACEHOLDER</text>
</svg>
